<?xml version="1.0" encoding="UTF-8" standalone="no"?>
<svg xmlns="http://www.w3.org/2000/svg" xmlns:xlink="http://www.w3.org/1999/xlink" width="800" height="600" viewBox="0 0 800 600">
    <style>
        @keyframes pulse {
            0% { opacity: 0.7; }
            50% { opacity: 1; }
            100% { opacity: 0.7; }
        }
        @keyframes signal {
            0% { stroke-width: 1; }
            50% { stroke-width: 3; }
            100% { stroke-width: 1; }
        }
        @keyframes rotate {
            from { transform: rotate(0deg); }
            to { transform: rotate(360deg); }
        }
        @keyframes scan {
            0% { stroke-dashoffset: 0; }
            100% { stroke-dashoffset: -20; }
        }
        .diagram-title {
            font-family: Arial, sans-serif;
            font-size: 24px;
            font-weight: bold;
            text-anchor: middle;
        }
        .section-title {
            font-family: Arial, sans-serif;
            font-size: 18px;
            font-weight: bold;
            text-anchor: middle;
        }
        .label {
            font-family: Arial, sans-serif;
            font-size: 14px;
            text-anchor: middle;
        }
        .small-label {
            font-family: Arial, sans-serif;
            font-size: 12px;
            text-anchor: middle;
        }
        .ear-outline {
            fill: #ffcccc;
            stroke: #993333;
            stroke-width: 2;
        }
        .sensor-body {
            fill: #ccccff;
            stroke: #3333cc;
            stroke-width: 2;
        }
        .sensor-part {
            fill: #e6e6ff;
            stroke: #9999cc;
            stroke-width: 1;
        }
        .sensor-component {
            fill: #99ccff;
            stroke: #3366cc;
            stroke-width: 1;
        }
        .signal-path {
            fill: none;
            stroke: #ff3366;
            stroke-width: 2;
            stroke-dasharray: 5;
            animation: signal 2s infinite ease-in-out;
        }
        .scan-path {
            fill: none;
            stroke: #33cc99;
            stroke-width: 1.5;
            stroke-dasharray: 5;
            animation: scan 3s linear infinite;
        }
        .component-icon {
            animation: pulse 3s infinite ease-in-out;
        }
        .rotating-element {
            transform-origin: center;
            animation: rotate 10s linear infinite;
        }
        .data-circle {
            fill: #3399ff;
            animation: pulse 2s infinite ease-in-out;
        }
        .impedance-plot {
            fill: none;
            stroke: #009933;
            stroke-width: 2;
        }
        .frequency-line {
            fill: none;
            stroke: #cc3300;
            stroke-width: 1;
            stroke-dasharray: 3;
        }
        .axis-line {
            fill: none;
            stroke: #333333;
            stroke-width: 1;
        }
    </style>
    
    <!-- Title -->
    <text x="400" y="40" class="diagram-title">Ear-Insertable Frequency-Scanning Impedance Sensor Technology</text>
    
    <!-- Ear and Sensor Illustration -->
    <g transform="translate(200, 250)">
        <!-- Ear Outline -->
        <path d="M 0,0 C 30,-50 80,-60 100,-30 C 120,0 120,40 100,70 C 80,100 50,120 20,130 C 10,135 0,140 -10,135 C -20,130 -15,120 -5,115 C 5,110 10,105 5,95 C 0,85 -10,80 -5,70 C 0,60 -5,50 -10,40 C -15,30 -10,20 0,0 Z" class="ear-outline" />
        
        <!-- Ear Canal -->
        <path d="M -5,40 C -2,50 0,60 -2,70 C -4,80 -8,85 -12,90" class="ear-outline" fill="none" />
        
        <!-- Sensor in Ear -->
        <rect x="-20" y="70" width="16" height="30" rx="5" ry="5" class="sensor-body" transform="rotate(-15)" />
        
        <!-- Sensor Components -->
        <circle cx="-12" cy="75" r="4" class="sensor-component component-icon" transform="rotate(-15)" />
        <rect x="-17" y="82" width="10" height="6" class="sensor-component" transform="rotate(-15)" />
        <rect x="-17" y="92" width="10" height="6" class="sensor-component component-icon" transform="rotate(-15)" />
        
        <!-- Sensor Signals -->
        <path d="M -12,75 C -30,60 -50,50 -70,55" class="signal-path" />
        <path d="M -12,85 C -35,80 -60,85 -75,70" class="signal-path" />
        <path d="M -12,95 C -40,100 -65,90 -80,85" class="signal-path" />
        
        <text x="30" y="-80" class="label">Ear Canal</text>
        <text x="-100" y="80" class="label">Wireless Signal</text>
        <text x="-30" y="120" class="label">Ear Sensor</text>
    </g>
    
    <!-- Sensor Detailed View -->
    <g transform="translate(550, 180)">
        <text x="0" y="-20" class="section-title">Sensor Components</text>
        
        <!-- Sensor Body Enlarged -->
        <rect x="-60" y="0" width="120" height="200" rx="15" ry="15" class="sensor-body" />
        
        <!-- Sensor Components -->
        <g transform="translate(0, 40)">
            <circle cx="0" cy="0" r="25" fill="#cce6ff" stroke="#3366cc" />
            <text x="0" y="0" class="small-label">EEG</text>
            <text x="0" y="15" class="small-label">Sensors</text>
            <circle cx="0" cy="0" r="20" fill="none" stroke="#3366cc" stroke-dasharray="3" class="rotating-element" />
        </g>
        
        <g transform="translate(0, 100)">
            <rect x="-30" y="-20" width="60" height="40" fill="#ffcccc" stroke="#cc6666" />
            <text x="0" y="0" class="small-label">Impedance</text>
            <text x="0" y="15" class="small-label">Scanner</text>
            
            <!-- Frequency Scanning Visualization -->
            <path d="M -25,-10 C -15,-15 -5,15 5,-15 C 15,15 25,-10" class="scan-path" />
        </g>
        
        <g transform="translate(0, 160)">
            <rect x="-25" y="-15" width="50" height="30" fill="#ccffcc" stroke="#66cc66" rx="5" ry="5" />
            <text x="0" y="5" class="small-label">Wireless</text>
            
            <!-- Wireless Signal Visualization -->
            <circle cx="0" cy="0" r="30" fill="none" stroke="#66cc66" stroke-dasharray="2" class="component-icon" />
            <circle cx="0" cy="0" r="40" fill="none" stroke="#66cc66" stroke-dasharray="3" stroke-opacity="0.7" class="component-icon" />
        </g>
    </g>
    
    <!-- Frequency Scanning Impedance Plot -->
    <g transform="translate(550, 450)">
        <text x="0" y="-30" class="section-title">Frequency Scanning Impedance</text>
        
        <!-- Plot Background -->
        <rect x="-120" y="-100" width="240" height="160" fill="#f8f8f8" stroke="#333333" />
        
        <!-- Axes -->
        <line x1="-100" y1="40" x2="100" y2="40" class="axis-line" />
        <line x1="-100" y1="-80" x2="-100" y2="40" class="axis-line" />
        
        <!-- Axis Labels -->
        <text x="0" y="60" class="small-label">Frequency (Hz)</text>
        <text x="-120" y="-20" class="small-label" transform="rotate(-90, -120, -20)">Impedance (Ω)</text>
        
        <!-- Frequency Scale -->
        <text x="-100" y="55" class="small-label">10</text>
        <text x="-50" y="55" class="small-label">100</text>
        <text x="0" y="55" class="small-label">1K</text>
        <text x="50" y="55" class="small-label">10K</text>
        <text x="100" y="55" class="small-label">100K</text>
        
        <!-- Impedance Scale -->
        <text x="-115" y="40" class="small-label">0</text>
        <text x="-115" y="0" class="small-label">500</text>
        <text x="-115" y="-40" class="small-label">1K</text>
        <text x="-115" y="-80" class="small-label">1.5K</text>
        
        <!-- Normal Impedance Curve -->
        <path d="M -100,0 C -80,-20 -60,-30 -40,-35 C -20,-38 0,-40 20,-30 C 40,-25 60,-15 80,-10 C 90,-5 100,0 100,5" class="impedance-plot" />
        
        <!-- Depression Impedance Curve -->
        <path d="M -100,10 C -80,-10 -60,-15 -40,-15 C -20,-18 0,-20 20,-10 C 40,-5 60,5 80,10 C 90,15 100,20 100,25" class="impedance-plot" stroke="#9900cc" stroke-dasharray="5" />
        
        <!-- Current Frequency Scan Position -->
        <line x1="20" y1="-90" x2="20" y2="50" class="frequency-line" />
        <circle cx="20" cy="-30" r="5" class="data-circle" />
        
        <!-- Legend -->
        <rect x="20" y="-90" width="70" height="40" fill="#ffffff" stroke="#333333" />
        <line x1="30" y1="-80" x2="50" y2="-80" class="impedance-plot" />
        <text x="70" y="-77" class="small-label" style="text-anchor: end;">Normal</text>
        <line x1="30" y1="-65" x2="50" y2="-65" class="impedance-plot" stroke="#9900cc" stroke-dasharray="5" />
        <text x="70" y="-62" class="small-label" style="text-anchor: end;">Depression</text>
    </g>
    
    <!-- Key Features -->
    <g transform="translate(200, 450)">
        <text x="0" y="-30" class="section-title">Key Technology Features</text>
        
        <!-- Feature Boxes -->
        <g transform="translate(0, 0)">
            <rect x="-120" y="-20" width="240" height="40" fill="#e6f9ff" stroke="#0099cc" rx="5" ry="5" />
            <text x="0" y="5" class="label">Frequency-Scanning Impedance Technology</text>
        </g>
        
        <g transform="translate(0, 50)">
            <rect x="-120" y="-20" width="240" height="40" fill="#f9f2ff" stroke="#9966cc" rx="5" ry="5" />
            <text x="0" y="5" class="label">User-Specific Calibration</text>
        </g>
        
        <g transform="translate(0, 100)">
            <rect x="-120" y="-20" width="240" height="40" fill="#f0fff0" stroke="#66cc66" rx="5" ry="5" />
            <text x="0" y="5" class="label">Real-time Neurotransmitter Detection</text>
        </g>
    </g>
    
    <!-- Patent Pending Notice -->
    <text x="400" y="580" class="label">Patent Pending Technology</text>
</svg>
